Coordinates
version=1
nRows=13
nColumns=40
inDegrees=yes

Units are S.I. units (second, meters, Newtons, ...)
Angles are in degrees.

endheader
time	pelvis_tilt	pelvis_list	pelvis_rotation	pelvis_tx	pelvis_ty	pelvis_tz	hip_flexion_r	hip_adduction_r	hip_rotation_r	knee_angle_r	knee_angle_r_beta	ankle_angle_r	subtalar_angle_r	mtp_angle_r	hip_flexion_l	hip_adduction_l	hip_rotation_l	knee_angle_l	knee_angle_l_beta	ankle_angle_l	subtalar_angle_l	mtp_angle_l	lumbar_extension	lumbar_bending	lumbar_rotation	arm_flex_r	arm_add_r	arm_rot_r	elbow_flex_r	pro_sup_r	wrist_flex_r	wrist_dev_r	arm_flex_l	arm_add_l	arm_rot_l	elbow_flex_l	pro_sup_l	wrist_flex_l	wrist_dev_l
      9.03300000	     -7.22553829	     -4.15460907	      6.49556599	      1.02601199	      0.92053672	      0.48418153	      4.93394357	      0.89601604	    -16.13125075	     12.84551256	     12.84551256	     15.70428492	     -1.33087343	     -4.25296120	     32.13119379	     -5.56965728	      0.64455907	     20.37340172	     20.37340172	      6.49078586	     -7.03078776	      6.60376193	     -9.22893484	      3.06911576	      3.53852754	     34.15337061	    -14.47101154	      3.22796611	     98.15452147	     44.21664748	      0.00000000	      0.00000000	     -2.72078093	     -6.79834289	    -14.85377588	     24.48971058	     46.79346950	      0.00000000	      0.00000000
      9.04600000	     -7.16485085	     -4.19347450	      6.36337653	      1.02811039	      0.91956988	      0.48221076	      4.37267154	      0.84688172	    -15.97922865	     12.89699998	     12.89699998	     16.07889715	     -1.21071135	     -4.26796099	     31.54889591	     -5.52191512	      0.09951418	     20.71964462	     20.71964462	      5.98147147	     -7.32832143	      6.38747673	     -9.03885777	      3.02517252	      3.73664879	     33.53426979	    -13.92099352	      3.49357207	     97.83373535	     44.21959298	      0.00000000	      0.00000000	     -2.90955583	     -6.83051475	    -14.87386731	     24.43680475	     46.79221300	      0.00000000	      0.00000000
      9.05900000	     -7.03319052	     -4.25963940	      6.25352886	      1.03031513	      0.91871961	      0.48003074	      3.80053399	      0.75545421	    -16.12792465	     13.14409983	     13.14409983	     16.89675116	     -0.52093760	     -3.13848098	     30.75241964	     -5.46519119	     -0.12467578	     20.69826499	     20.69826499	      3.96757053	     -8.43608003	      2.59573019	     -8.82308769	      3.01316831	      3.17093959	     33.64920701	    -12.52100214	      3.81790007	     95.24231166	     44.33522660	      0.00000000	      0.00000000	     -3.44826841	     -6.90994619	    -15.00908366	     24.46718564	     46.78872857	      0.00000000	      0.00000000
      9.07200000	     -6.90922335	     -4.25216967	      6.15320280	      1.03245041	      0.91809965	      0.47772725	      3.25886172	      0.60810473	    -15.93848375	     13.37232717	     13.37232717	     17.17183527	     -0.57002720	     -3.16319220	     30.24179137	     -5.37823045	     -0.34368833	     21.25967275	     21.25967275	      3.73419082	     -8.88787812	      2.48145895	     -8.74146010	      2.92523732	      3.31781057	     32.71263420	    -12.19036319	      4.18947805	     95.00934285	     44.33058722	      0.00000000	      0.00000000	     -3.45437699	     -6.97585531	    -15.04221408	     24.52323035	     46.79302214	      0.00000000	      0.00000000
      9.08500000	     -6.86017879	     -4.26253209	      6.06018219	      1.03438615	      0.91747376	      0.47520189	      3.02172783	      0.38697112	    -15.77466943	     14.01436236	     14.01436236	     17.52680178	     -0.71763762	     -2.91174443	     29.91919508	     -5.21227510	     -0.07224510	     21.91064404	     21.91064404	      3.40126272	    -10.00190626	      1.95547500	     -8.54287263	      2.82173577	      3.50156775	     31.88707380	    -12.11555193	      4.61781065	     93.93492932	     44.36407937	      0.00000000	      0.00000000	     -3.32982908	     -7.01786066	    -15.12273171	     24.69297188	     46.80226594	      0.00000000	      0.00000000
      9.09800000	     -6.62043572	     -4.22261622	      6.08047375	      1.03642012	      0.91754386	      0.47245658	      2.43464734	      0.16168887	    -15.66302709	     14.37683746	     14.37683746	     17.64482638	     -0.78035703	     -2.92859506	     29.38073038	     -5.06111195	     -0.06843674	     22.47623890	     22.47623890	      3.49512290	    -10.33331508	      1.81819718	     -8.63546783	      2.75451807	      3.44167951	     30.67713944	    -11.73539497	      4.96344040	     93.46860523	     44.36520809	      0.00000000	      0.00000000	     -3.13867628	     -7.10429806	    -15.13030638	     24.76753836	     46.80635140	      0.00000000	      0.00000000
      9.11100000	     -6.53130650	     -4.14456380	      6.01936545	      1.03814276	      0.91750637	      0.46948668	      2.39285764	     -0.26723799	    -15.56257171	     15.46034621	     15.46034621	     17.89334073	     -0.98957670	     -2.84764376	     29.10812524	     -4.78231874	      0.32615543	     23.18351429	     23.18351429	      3.67079043	    -11.24648775	      1.74782974	     -8.52982150	      2.62312439	      3.56150712	     29.71307240	    -11.64365879	      5.29713930	     91.59148647	     44.42422858	      0.00000000	      0.00000000	     -2.77476107	     -7.19502804	    -15.15375711	     24.87632045	     46.81100958	      0.00000000	      0.00000000
      9.12400000	     -6.22448347	     -4.16198017	      6.07530339	      1.04004355	      0.91817990	      0.46634125	      1.92797095	     -0.51154326	    -15.54028200	     16.14142520	     16.14142520	     17.77127075	     -1.14179678	     -2.87253769	     28.54972375	     -4.64269490	      0.58405189	     23.71898152	     23.71898152	      4.12681621	    -11.54966702	      1.56955299	     -8.73294483	      2.64214406	      3.41945677	     28.36913818	    -11.39803059	      5.63606970	     90.87397280	     44.43304376	      0.00000000	      0.00000000	     -2.41177972	     -7.25695186	    -15.14802435	     25.02298137	     46.81538746	      0.00000000	      0.00000000
      9.13700000	     -6.15665027	     -4.04063305	      6.01405175	      1.04142350	      0.91855871	      0.46304127	      2.30812684	     -1.12482242	    -15.36989824	     17.92997263	     17.92997263	     17.80170740	     -1.64968813	     -3.12984057	     28.33764322	     -4.27169755	      1.01301264	     24.42390176	     24.42390176	      4.91250548	    -12.32418225	      2.66978717	     -8.55898236	      2.50355576	      3.15982770	     27.98416981	    -11.07828887	      6.37697412	     87.00560999	     44.56354012	      0.00000000	      0.00000000	     -2.08198361	     -7.37782055	    -15.14256294	     25.15728931	     46.80135945	      0.00000000	      0.00000000
      9.15000000	     -6.03520172	     -4.04553081	      5.97209047	      1.04288344	      0.91924666	      0.45972868	      2.63667536	     -1.59116969	    -15.21798374	     19.66771586	     19.66771586	     17.52190179	     -2.16090029	     -3.60601022	     27.96672512	     -4.11637081	      1.16587899	     24.88309342	     24.88309342	      5.59465570	    -12.48058539	      2.81862487	     -8.54145149	      2.50991843	      3.39304496	     26.61887798	    -11.37337094	      6.81641932	     85.19740371	     44.61289986	      0.00000000	      0.00000000	     -1.49866694	     -7.41027452	    -15.16110794	     25.66336700	     46.80549140	      0.00000000	      0.00000000
      9.16300000	     -5.82992658	     -4.05065581	      5.89567818	      1.04426741	      0.92013494	      0.45647408	      3.08175824	     -2.09134550	    -14.96536867	     21.75803332	     21.75803332	     17.08752622	     -2.80962618	     -4.23819651	     27.46297836	     -3.98004220	      1.31110547	     25.26378693	     25.26378693	      6.26858384	    -12.58554872	      2.91698490	     -8.65014448	      2.47812737	      3.64659106	     25.31737180	    -11.60653894	      7.19616470	     83.19686815	     44.66700113	      0.00000000	      0.00000000	     -0.86530374	     -7.45029033	    -15.13816321	     26.14898276	     46.80530836	      0.00000000	      0.00000000
      9.17600000	     -5.70954284	     -4.07642093	      5.79310885	      1.04555507	      0.92096087	      0.45325072	      3.75841556	     -2.56201622	    -14.54197174	     23.98023021	     23.98023021	     15.81300034	     -4.21365357	     -6.63531376	     27.05627538	     -3.89336990	      1.24605838	     25.68376424	     25.68376424	      7.44845283	    -12.39921129	      4.14565274	     -8.51070211	      2.52025498	      3.04369998	     25.07603565	    -11.09292681	      8.30360700	     78.53191920	     44.81155116	      0.00000000	      0.00000000	     -0.87906544	     -7.65384922	    -14.93842561	     27.14623515	     46.73612460	      0.00000000	      0.00000000
      9.18900000	     -5.50654264	     -4.07055784	      5.61666952	      1.04669137	      0.92185823	      0.45015463	      4.68867672	     -3.17976682	    -14.15618625	     26.88670733	     26.88670733	     15.12064247	     -5.06736381	     -7.34855726	     26.43815663	     -3.84112236	      1.00976525	     25.85479747	     25.85479747	      7.99925090	    -12.28090303	      3.97749117	     -8.65204516	      2.52670756	      3.45626869	     23.65508035	    -11.59872093	      8.64598056	     76.78128557	     44.85545668	      0.00000000	      0.00000000	     -0.05420141	     -7.71038098	    -14.91521491	     27.83156841	     46.74028607	      0.00000000	      0.00000000
